<svg xmlns="http://www.w3.org/2000/svg" fill="#fff"  version="1.1" viewBox="-5.0 -10.0 110.0 135.0">
 <path d="m81.25 4.168h-62.5c-0.57422 0-1.043 0.46875-1.043 1.043v5.207h-5.207c-0.57422 0-1.043 0.46875-1.043 1.043v83.332c0 0.57422 0.46875 1.043 1.043 1.043h62.5c0.57422 0 1.043-0.46875 1.043-1.043v-5.207h5.207c0.57422 0 1.043-0.46875 1.043-1.043v-83.336c0-0.57422-0.46875-1.043-1.043-1.043zm-7.293 89.582h-60.414v-81.25h4.168v76.043c0 0.57422 0.46875 1.043 1.043 1.043h55.207v4.168zm6.25-6.25h-60.414v-81.25h60.418v81.25z"/>
 <path d="m29.324 32.605c7.3438 4.832 17.656-0.75 17.551-9.6875 0-6.3242-5.1367-11.457-11.457-11.457-11.52 0.10547-15.699 15.043-6.0938 21.145zm1.457-1.5547v-2.457c0-0.98828 0.80078-1.8008 1.8008-1.8008h5.6758c0.98828 0 1.8008 0.80078 1.8008 1.8008v2.457c-2.6992 1.6367-6.582 1.6367-9.2812 0zm4.6367-17.508c8.2305-0.0625 12.457 10.125 6.7188 15.895 0.26953-2.457-1.3008-4.6992-3.8867-4.7188h-5.6758c-2.5742 0.019531-4.1562 2.2617-3.8867 4.7188-5.7383-5.7695-1.5-15.957 6.7188-15.895z"/>
 <path d="m35.418 23.957c5.1367-0.16797 5.125-7.6055 0-7.7617-5.1367 0.16797-5.125 7.6055 0 7.7617zm0-5.6758c2.3633 0.042969 2.3633 3.5508 0 3.5938-2.3633-0.042969-2.3633-3.5508 0-3.5938z"/>
 <path d="m25 40.625h20.832c0.57422 0 1.043-0.46875 1.043-1.043s-0.46875-1.043-1.043-1.043h-20.832c-1.3633 0.019532-1.375 2.0625 0 2.082z"/>
 <path d="m25 45.832h20.832c0.57422 0 1.043-0.46875 1.043-1.043 0-0.57422-0.46875-1.043-1.043-1.043h-20.832c-1.3633 0.019531-1.375 2.0625 0 2.082z"/>
 <path d="m25 51.043h14.582c1.3633-0.019531 1.375-2.0625 0-2.082h-14.582c-1.3633 0.019531-1.375 2.0625 0 2.082z"/>
 <path d="m54.168 23.957h20.832c0.57422 0 1.043-0.46875 1.043-1.043 0-0.57422-0.46875-1.043-1.043-1.043h-20.832c-1.3633 0.019531-1.375 2.0625 0 2.082z"/>
 <path d="m54.168 29.168h20.832c0.57422 0 1.043-0.46875 1.043-1.043s-0.46875-1.043-1.043-1.043h-20.832c-1.3633 0.019531-1.375 2.0625 0 2.082z"/>
 <path d="m54.168 34.375h20.832c0.57422 0 1.043-0.46875 1.043-1.043s-0.46875-1.043-1.043-1.043h-20.832c-1.3633 0.019532-1.375 2.0625 0 2.082z"/>
 <path d="m54.168 39.582h11.457c1.3633-0.019531 1.375-2.0625 0-2.082h-11.457c-1.3633 0.019531-1.375 2.0625 0 2.082z"/>
 <path d="m54.168 46.875h2.082c1.3633-0.019531 1.3633-2.0625 0-2.082h-2.082c-1.3633 0.019531-1.3633 2.0625 0 2.082z"/>
 <path d="m75 44.793h-13.543c-0.57422 0-1.043 0.46875-1.043 1.043 0 0.57422 0.46875 1.043 1.043 1.043h13.543c1.3633-0.019531 1.375-2.0625 0-2.082z"/>
 <path d="m54.168 52.082h2.082c1.3633-0.019531 1.3633-2.0625 0-2.082h-2.082c-1.3633 0.019531-1.3633 2.0625 0 2.082z"/>
 <path d="m75 50h-13.543c-0.57422 0-1.043 0.46875-1.043 1.043s0.46875 1.043 1.043 1.043h13.543c1.3633-0.019532 1.375-2.0625 0-2.082z"/>
 <path d="m54.168 57.293h2.082c1.3633-0.019531 1.3633-2.0625 0-2.082h-2.082c-1.3633 0.019531-1.3633 2.0625 0 2.082z"/>
 <path d="m75 55.207h-13.543c-0.57422 0-1.043 0.46875-1.043 1.043s0.46875 1.043 1.043 1.043h13.543c1.3633-0.019531 1.375-2.0625 0-2.082z"/>
 <path d="m54.168 62.5h2.082c1.3633-0.019531 1.3633-2.0625 0-2.082h-2.082c-1.3633 0.019531-1.3633 2.0625 0 2.082z"/>
 <path d="m75 60.418h-13.543c-0.57422 0-1.043 0.46875-1.043 1.043 0 0.57422 0.46875 1.043 1.043 1.043h13.543c1.3633-0.019531 1.375-2.0625 0-2.082z"/>
 <path d="m54.168 67.707h2.082c1.3633-0.019531 1.3633-2.0625 0-2.082h-2.082c-1.3633 0.019531-1.3633 2.0625 0 2.082z"/>
 <path d="m75 65.625h-13.543c-0.57422 0-1.043 0.46875-1.043 1.043s0.46875 1.043 1.043 1.043h13.543c1.3633-0.019532 1.375-2.0625 0-2.082z"/>
 <path d="m54.168 75h20.832c0.57422 0 1.043-0.46875 1.043-1.043s-0.46875-1.043-1.043-1.043h-20.832c-1.3633 0.019532-1.375 2.0625 0 2.082z"/>
 <path d="m54.168 80.207h13.543c0.57422 0 1.043-0.46875 1.043-1.043 0-0.57422-0.46875-1.043-1.043-1.043h-13.543c-1.3633 0.019531-1.375 2.0625 0 2.082z"/>
 <path d="m59.375 15.625h10.418c1.3633-0.019531 1.375-2.0625 0-2.082h-10.418c-1.3633 0.019531-1.375 2.0625 0 2.082z"/>
 <path d="m25 62.5h20.832c0.57422 0 1.043-0.46875 1.043-1.043v-4.168c0-0.57422-0.46875-1.043-1.043-1.043h-20.832c-0.57422 0-1.043 0.46875-1.043 1.043v4.168c0 0.57422 0.46875 1.043 1.043 1.043zm1.043-4.168h18.75v2.082h-18.75z"/>
 <path d="m25 71.875h20.832c0.57422 0 1.043-0.46875 1.043-1.043v-4.168c0-0.57422-0.46875-1.043-1.043-1.043h-20.832c-0.57422 0-1.043 0.46875-1.043 1.043v4.168c0 0.57422 0.46875 1.043 1.043 1.043zm1.043-4.168h18.75v2.082h-18.75z"/>
 <path d="m25 81.25h20.832c0.57422 0 1.043-0.46875 1.043-1.043v-4.168c0-0.57422-0.46875-1.043-1.043-1.043h-20.832c-0.57422 0-1.043 0.46875-1.043 1.043v4.168c0 0.57422 0.46875 1.043 1.043 1.043zm1.043-4.168h18.75v2.082h-18.75z"/>
</svg>