<svg xmlns="http://www.w3.org/2000/svg" xmlns:xlink="http://www.w3.org/1999/xlink" fill="#fff" version="1.1" x="0px" y="0px" viewBox="0 0 64 80" style="enable-background:new 0 0 64 64;" xml:space="preserve"><g><path d="M13.626,31.769C15.065,30.672,16,28.945,16,27c0-3.309-2.691-6-6-6s-6,2.691-6,6c0,1.945,0.935,3.672,2.374,4.769   C3.213,33.167,1,36.328,1,40v5c0,2.206,1.794,4,4,4v11c0,1.654,1.346,3,3,3c0.771,0,1.468-0.301,2-0.78   c0.532,0.48,1.229,0.78,2,0.78c1.654,0,3-1.346,3-3V49c2.206,0,4-1.794,4-4v-5C19,36.328,16.787,33.167,13.626,31.769z M6,27   c0-2.206,1.794-4,4-4s4,1.794,4,4s-1.794,4-4,4S6,29.206,6,27z M17,45c0,1.103-0.897,2-2,2V37h-2v23c0,0.552-0.448,1-1,1   s-1-0.448-1-1V45H9v15c0,0.552-0.448,1-1,1s-1-0.448-1-1V37H5v10c-1.103,0-2-0.897-2-2v-5c0-3.859,3.141-7,7-7s7,3.141,7,7V45z"/><path d="M57.626,31.769C59.065,30.672,60,28.945,60,27c0-3.309-2.691-6-6-6s-6,2.691-6,6c0,1.945,0.935,3.672,2.374,4.769   C47.213,33.167,45,36.328,45,40v5c0,2.206,1.794,4,4,4v11c0,1.654,1.346,3,3,3c0.771,0,1.468-0.301,2-0.78   c0.532,0.48,1.229,0.78,2,0.78c1.654,0,3-1.346,3-3V49c2.206,0,4-1.794,4-4v-5C63,36.328,60.787,33.167,57.626,31.769z M50,27   c0-2.206,1.794-4,4-4s4,1.794,4,4s-1.794,4-4,4S50,29.206,50,27z M61,45c0,1.103-0.897,2-2,2V37h-2v23c0,0.552-0.448,1-1,1   s-1-0.448-1-1V45h-2v15c0,0.552-0.448,1-1,1s-1-0.448-1-1V37h-2v10c-1.103,0-2-0.897-2-2v-5c0-3.859,3.141-7,7-7s7,3.141,7,7V45z"/><path d="M62,1c-1.627,0-3.061,0.793-3.974,2H35.974C35.061,1.793,33.627,1,32,1s-3.061,0.793-3.974,2H5.974   C5.061,1.793,3.627,1,2,1H1v10h1c1.627,0,3.061-0.793,3.974-2h16.881C22.307,10.243,22,11.6,22,13c0,3.116,1.523,6.088,4.002,7.966   C26.002,20.977,26,20.988,26,21c0,1.945,0.935,3.672,2.374,4.769C25.213,27.167,23,30.328,23,34v5c0,2.206,1.794,4,4,4v11   c0,1.654,1.346,3,3,3c0.771,0,1.468-0.301,2-0.78c0.532,0.48,1.229,0.78,2,0.78c1.654,0,3-1.346,3-3V43c2.206,0,4-1.794,4-4v-5   c0-3.672-2.213-6.833-5.374-8.231C37.065,24.672,38,22.945,38,21c0-0.013-0.002-0.026-0.002-0.039C40.467,19.092,42,16.154,42,13   c0-1.4-0.307-2.757-0.855-4h16.881c0.914,1.207,2.348,2,3.974,2h1V1H62z M3,8.829V3.171C4.164,3.584,5,4.696,5,6   S4.164,8.416,3,8.829z M6.899,7C6.965,6.677,7,6.342,7,6S6.965,5.323,6.899,5h19.165c-0.769,0.573-1.443,1.245-2.014,2H6.899z    M27.545,16.995c-0.457,0.507-0.831,1.089-1.094,1.73C24.918,17.23,24,15.158,24,13c0-2.464,1.174-4.761,3.075-6.262   c0.108,0.721,0.358,1.395,0.74,1.981C26.669,9.839,26,11.371,26,13C26,14.482,26.566,15.903,27.545,16.995z M32,3   c1.654,0,3,1.346,3,3s-1.346,3-3,3s-3-1.346-3-3S30.346,3,32,3z M29.21,10.147C30.008,10.685,30.968,11,32,11   s1.992-0.315,2.79-0.853C35.554,10.894,36,11.915,36,13c0,1.037-0.419,2.015-1.117,2.747C34.003,15.262,33.023,15,32,15   c-1.047,0-2.031,0.271-2.889,0.744C28.409,15.006,28,14.025,28,13C28,11.915,28.446,10.894,29.21,10.147z M39,34v5   c0,1.103-0.897,2-2,2V31h-2v23c0,0.552-0.448,1-1,1s-1-0.448-1-1V39h-2v15c0,0.552-0.448,1-1,1s-1-0.448-1-1V31h-2v10   c-1.103,0-2-0.897-2-2v-5c0-3.859,3.141-7,7-7S39,30.141,39,34z M32,25c-2.206,0-4-1.794-4-4s1.794-4,4-4   c0.331,0,0.652,0.052,0.966,0.13c-0.349,0.325-0.628,0.721-0.792,1.184c-0.269,0.756-0.227,1.57,0.118,2.295   c0.495,1.038,1.559,1.709,2.709,1.709c0.268,0,0.535-0.049,0.796-0.121C35.285,23.815,33.787,25,32,25z M35.434,20.22   c-0.495,0.229-1.11,0.006-1.336-0.472c-0.115-0.241-0.129-0.513-0.039-0.766c0.089-0.252,0.271-0.454,0.511-0.568   C36.653,17.424,38,15.299,38,13c0-1.629-0.669-3.161-1.815-4.281c0.382-0.587,0.632-1.26,0.74-1.981C38.826,8.239,40,10.536,40,13   C40,16.066,38.206,18.9,35.434,20.22z M57.101,7H39.95c-0.571-0.755-1.245-1.427-2.014-2h19.165C57.035,5.323,57,5.658,57,6   S57.035,6.677,57.101,7z M61,8.829C59.836,8.416,59,7.304,59,6s0.836-2.416,2-2.829V8.829z"/></g></svg>